<svg width="246" height="61" viewBox="0 0 246 61" version="1.1" xmlns="http://www.w3.org/2000/svg" xmlns:xlink="http://www.w3.org/1999/xlink">
<g id="Canvas" fill="none">
<g id="Logo">
<g id="Birdseye">
<path d="M 13.9794 16.3073C 15.7404 16.6869 17.1627 17.5273 18.2464 18.8287C 19.3572 20.13 19.9126 21.6618 19.9126 23.424C 19.9126 25.7556 19.1134 27.6262 17.5149 29.036C 15.9436 30.4458 13.6543 31.1507 10.6471 31.1507L 0 31.1507L 0 2.48067L 10.4846 2.48067C 13.3563 2.48067 15.5372 3.11778 17.0273 4.392C 18.5173 5.66622 19.2624 7.41489 19.2624 9.638C 19.2624 11.4816 18.7612 12.9727 17.7588 14.1113C 16.7835 15.25 15.5237 15.982 13.9794 16.3073ZM 3.69805 15.0467L 9.87501 15.0467C 11.6902 15.0467 13.0719 14.6264 14.0201 13.786C 14.9954 12.9456 15.483 11.7662 15.483 10.248C 15.483 8.784 15.0089 7.63178 14.0607 6.79133C 13.1125 5.95089 11.6631 5.53067 9.71246 5.53067L 3.69805 5.53067L 3.69805 15.0467ZM 9.95629 28.06C 11.9069 28.06 13.4105 27.6127 14.4671 26.718C 15.5508 25.8233 16.0926 24.5627 16.0926 22.936C 16.0926 21.3364 15.5372 20.0893 14.4265 19.1947C 13.3428 18.2729 11.8256 17.812 9.87501 17.812L 3.69805 17.812L 3.69805 28.06L 9.95629 28.06Z" transform="translate(78.9988 13.4515)" fill="#232323"/>
<path d="M 23.8754 2.27733C 23.8754 1.59955 24.1057 1.05733 24.5663 0.650666C 25.0268 0.216889 25.6364 0 26.395 0C 27.1535 0 27.7631 0.216889 28.2237 0.650666C 28.6842 1.05733 28.9145 1.59955 28.9145 2.27733C 28.9145 2.95511 28.6842 3.51089 28.2237 3.94466C 27.7631 4.35133 27.1535 4.55467 26.395 4.55467C 25.6364 4.55467 25.0268 4.35133 24.5663 3.94466C 24.1057 3.51089 23.8754 2.95511 23.8754 2.27733ZM 28.2237 8.82466L 28.2237 31.1507L 24.5256 31.1507L 24.5256 8.82466L 28.2237 8.82466Z" transform="translate(78.9988 13.4515)" fill="#232323"/>
<path d="M 37.8672 13.3387C 38.5987 11.7933 39.6689 10.6004 41.0776 9.76C 42.4864 8.89244 44.1661 8.45866 46.1167 8.45866L 46.1167 12.4847L 44.9789 12.4847C 42.8928 12.4847 41.186 13.0269 39.8585 14.1113C 38.531 15.1687 37.8672 16.9309 37.8672 19.398L 37.8672 31.1507L 34.1692 31.1507L 34.1692 8.82466L 37.8672 8.82466L 37.8672 13.3387Z" transform="translate(78.9988 13.4515)" fill="#232323"/>
<path d="M 58.9091 8.54C 61.0765 8.54 62.9052 9.08222 64.3952 10.1667C 65.9124 11.2511 66.969 12.7016 67.565 14.518L 67.565 1.05733L 71.263 1.05733L 71.263 31.1507L 67.565 31.1507L 67.565 25.4573C 66.969 27.2738 65.9124 28.7242 64.3952 29.8087C 62.9052 30.8931 61.0765 31.4353 58.9091 31.4353C 56.9314 31.4353 55.1704 30.9744 53.6262 30.0527C 52.0819 29.1309 50.8628 27.816 49.9688 26.108C 49.1018 24.3729 48.6684 22.3396 48.6684 20.008C 48.6684 17.6764 49.1018 15.6431 49.9688 13.908C 50.8628 12.1729 52.0819 10.8444 53.6262 9.92266C 55.1704 9.00089 56.9314 8.54 58.9091 8.54ZM 59.9657 11.834C 57.69 11.834 55.8613 12.566 54.4796 14.03C 53.125 15.4669 52.4477 17.4596 52.4477 20.008C 52.4477 22.5564 53.125 24.5627 54.4796 26.0267C 55.8613 27.4636 57.69 28.182 59.9657 28.182C 61.4287 28.182 62.7291 27.8431 63.8669 27.1653C 65.0319 26.4876 65.9395 25.5387 66.5897 24.3187C 67.2399 23.0716 67.565 21.6347 67.565 20.008C 67.565 18.3813 67.2399 16.9444 66.5897 15.6973C 65.9395 14.4502 65.0319 13.5013 63.8669 12.8507C 62.7291 12.1729 61.4287 11.834 59.9657 11.834Z" transform="translate(78.9988 13.4515)" fill="#232323"/>
<path d="M 84.1383 8.54C 86.6578 8.54 88.6762 9.20422 90.1933 10.5327C 91.7376 11.834 92.6722 13.5962 92.9973 15.8193L 89.4618 15.8193C 89.2993 14.4909 88.7439 13.4064 87.7957 12.566C 86.8746 11.6984 85.6283 11.2647 84.057 11.2647C 82.7295 11.2647 81.6864 11.59 80.9279 12.2407C 80.1964 12.8642 79.8307 13.7182 79.8307 14.8027C 79.8307 15.616 80.0745 16.2802 80.5621 16.7953C 81.0769 17.2833 81.7 17.6629 82.4315 17.934C 83.19 18.178 84.2196 18.4491 85.52 18.7473C 87.1726 19.1269 88.5001 19.52 89.5025 19.9267C 90.532 20.3062 91.3989 20.9298 92.1033 21.7973C 92.8348 22.6649 93.2005 23.8307 93.2005 25.2947C 93.2005 27.1111 92.5097 28.5887 91.128 29.7273C 89.7734 30.866 87.9582 31.4353 85.6825 31.4353C 83.0275 31.4353 80.8601 30.7982 79.1804 29.524C 77.5007 28.2498 76.5119 26.474 76.2139 24.1967L 79.79 24.1967C 79.9255 25.5522 80.5079 26.6502 81.5374 27.4907C 82.594 28.3311 83.9757 28.7513 85.6825 28.7513C 86.9558 28.7513 87.9447 28.426 88.6491 27.7753C 89.3806 27.1247 89.7463 26.2707 89.7463 25.2133C 89.7463 24.3458 89.4889 23.6544 88.9742 23.1393C 88.4594 22.6242 87.8228 22.2311 87.0642 21.96C 86.3056 21.6889 85.2626 21.4042 83.9351 21.106C 82.2825 20.7264 80.955 20.3469 79.9526 19.9673C 78.9773 19.5878 78.1374 18.9913 77.433 18.178C 76.7557 17.3376 76.4171 16.2124 76.4171 14.8027C 76.4171 12.932 77.1079 11.4273 78.4896 10.2887C 79.8713 9.12289 81.7542 8.54 84.1383 8.54Z" transform="translate(78.9988 13.4515)" fill="#232323"/>
<path d="M 118.664 18.7473C 118.664 19.5336 118.61 20.2113 118.502 20.7807L 100.662 20.7807C 100.743 23.3291 101.461 25.2404 102.816 26.5147C 104.197 27.7889 105.877 28.426 107.855 28.426C 109.643 28.426 111.133 27.9787 112.325 27.084C 113.544 26.1622 114.289 24.9422 114.56 23.424L 118.502 23.424C 118.231 24.9693 117.621 26.352 116.673 27.572C 115.752 28.792 114.546 29.7409 113.056 30.4187C 111.566 31.0964 109.887 31.4353 108.017 31.4353C 105.877 31.4353 103.98 30.9744 102.328 30.0527C 100.675 29.1309 99.3748 27.816 98.4266 26.108C 97.5055 24.3729 97.0449 22.3396 97.0449 20.008C 97.0449 17.6764 97.5055 15.6431 98.4266 13.908C 99.3748 12.1729 100.675 10.8444 102.328 9.92266C 103.98 9.00089 105.877 8.54 108.017 8.54C 110.185 8.54 112.067 9.00089 113.666 9.92266C 115.291 10.8444 116.524 12.078 117.364 13.6233C 118.231 15.1687 118.664 16.8767 118.664 18.7473ZM 114.926 18.9913C 115.007 17.3376 114.736 15.9549 114.113 14.8433C 113.49 13.7318 112.636 12.9049 111.553 12.3627C 110.469 11.8204 109.29 11.5493 108.017 11.5493C 105.985 11.5493 104.278 12.1864 102.897 13.4607C 101.515 14.7078 100.77 16.5513 100.662 18.9913L 114.926 18.9913Z" transform="translate(78.9988 13.4515)" fill="#232323"/>
<path d="M 125.045 8.82466L 132.279 26.3927L 138.984 8.82466L 143.089 8.82466L 129.841 41.724L 125.655 41.724L 130.288 30.7847L 120.9 8.82466L 125.045 8.82466Z" transform="translate(78.9988 13.4515)" fill="#232323"/>
<path d="M 167.001 18.7473C 167.001 19.5336 166.947 20.2113 166.839 20.7807L 148.999 20.7807C 149.08 23.3291 149.798 25.2404 151.152 26.5147C 152.534 27.7889 154.214 28.426 156.192 28.426C 157.98 28.426 159.47 27.9787 160.662 27.084C 161.881 26.1622 162.626 24.9422 162.897 23.424L 166.839 23.424C 166.568 24.9693 165.958 26.352 165.01 27.572C 164.089 28.792 162.883 29.7409 161.393 30.4187C 159.903 31.0964 158.223 31.4353 156.354 31.4353C 154.214 31.4353 152.317 30.9744 150.665 30.0527C 149.012 29.1309 147.712 27.816 146.764 26.108C 145.842 24.3729 145.382 22.3396 145.382 20.008C 145.382 17.6764 145.842 15.6431 146.764 13.908C 147.712 12.1729 149.012 10.8444 150.665 9.92266C 152.317 9.00089 154.214 8.54 156.354 8.54C 158.521 8.54 160.404 9.00089 162.003 9.92266C 163.628 10.8444 164.861 12.078 165.701 13.6233C 166.568 15.1687 167.001 16.8767 167.001 18.7473ZM 163.263 18.9913C 163.344 17.3376 163.073 15.9549 162.45 14.8433C 161.827 13.7318 160.973 12.9049 159.89 12.3627C 158.806 11.8204 157.627 11.5493 156.354 11.5493C 154.322 11.5493 152.615 12.1864 151.234 13.4607C 149.852 14.7078 149.107 16.5513 148.999 18.9913L 163.263 18.9913Z" transform="translate(78.9988 13.4515)" fill="#232323"/>
</g>
<g id="Group">
<g id="Ellipse">
<ellipse cx="30.4784" cy="30.5" rx="30.4784" ry="30.5" fill="#232323"/>
</g>
<g id="Ellipse 2.1">
<ellipse cx="8.80488" cy="8.81111" rx="8.80488" ry="8.81111" transform="translate(30 12)" fill="white"/>
</g>
</g>
</g>
</g>
</svg>

